<svg width="54" height="46" viewBox="0 0 54 46" fill="none" xmlns="http://www.w3.org/2000/svg">
<path d="M27.1441 45.9685C22.9976 45.9685 19.2616 45.653 15.9362 45.022C12.6518 44.3909 9.8396 43.2341 7.49949 41.5513C5.15939 39.8686 3.35299 37.5548 2.0803 34.61C0.848666 31.6652 0.232849 27.8791 0.232849 23.2516C0.232849 18.7082 0.848666 14.9641 2.0803 12.0193C3.35299 9.0745 5.15939 6.7397 7.49949 5.01489C9.8396 3.29009 12.6518 2.09114 15.9362 1.41804C19.2616 0.744948 22.9976 0.408401 27.1441 0.408401C31.0442 0.408401 34.5749 0.70288 37.7361 1.29184C40.9384 1.8808 43.689 2.84837 45.9881 4.19456C48.2871 5.54075 50.0935 7.32866 51.4073 9.55829C52.7621 11.7458 53.5626 14.4593 53.8089 17.6985H38.2904C38.2082 16.5206 37.8593 15.5741 37.2435 14.8589C36.6276 14.1437 35.8271 13.6179 34.8418 13.2813C33.8565 12.9448 32.7069 12.7345 31.3932 12.6503C30.0795 12.5241 28.6631 12.461 27.1441 12.461C25.625 12.461 24.1676 12.5031 22.7718 12.5872C21.417 12.6714 20.2059 12.9658 19.1384 13.4707C18.1121 13.9334 17.291 14.7117 16.6752 15.8054C16.0594 16.8572 15.7514 18.3506 15.7514 20.2857V26.2174C15.7514 28.1525 16.0388 29.646 16.6136 30.6977C17.2294 31.7073 18.0505 32.4646 19.0769 32.9694C20.1443 33.4321 21.3554 33.7056 22.7102 33.7897C24.106 33.8738 25.584 33.9159 27.1441 33.9159C28.622 33.9159 30.0179 33.8738 31.3316 33.7897C32.6454 33.6635 33.7949 33.4321 34.7802 33.0956C35.8066 32.717 36.6276 32.2121 37.2435 31.5811C37.8593 30.9501 38.2288 30.1087 38.3519 29.057H53.8705C53.5831 32.1701 52.7621 34.8204 51.4073 37.0079C50.0525 39.1534 48.2255 40.8993 45.9265 42.2455C43.6685 43.5496 40.9384 44.4961 37.7361 45.0851C34.5749 45.674 31.0442 45.9685 27.1441 45.9685Z" fill="#080808"/>
</svg>
