<svg width="56" height="56" viewBox="0 0 56 56" fill="none" xmlns="http://www.w3.org/2000/svg">
<path fill-rule="evenodd" clip-rule="evenodd" d="M46.3474 48.9234C48.3588 51.4629 46.5501 55.2026 43.3106 55.2026H5.00214C2.44389 55.2026 0.370018 53.1287 0.370018 50.5705V5.34438C0.370018 0.571571 6.39056 -1.52387 9.35394 2.21753L46.3474 48.9234ZM8.08681 6.97583C8.08681 5.6967 7.04979 4.65977 5.77067 4.65977C4.49155 4.65977 3.45452 5.6967 3.45452 6.97583V8.51977C3.45452 8.94767 3.80141 9.29455 4.22931 9.29455H7.31203C7.73993 9.29455 8.08681 8.94767 8.08681 8.51977V6.97583ZM8.0866 13.705C8.0866 13.2771 7.73971 12.9302 7.31181 12.9302H4.22909C3.80119 12.9302 3.45431 13.2771 3.45431 13.705V16.7902C3.45431 17.2181 3.80119 17.565 4.22909 17.565H7.31181C7.73971 17.565 8.0866 17.2181 8.0866 16.7902V13.705ZM7.31181 21.2009C7.73971 21.2009 8.0866 21.5477 8.0866 21.9757V25.0609C8.0866 25.4888 7.73971 25.8357 7.31181 25.8357H4.22909C3.80119 25.8357 3.45431 25.4888 3.45431 25.0609V21.9757C3.45431 21.5477 3.80119 21.2009 4.22909 21.2009H7.31181ZM8.0866 30.2462C8.0866 29.8183 7.73971 29.4714 7.31181 29.4714H4.22909C3.80119 29.4714 3.45431 29.8183 3.45431 30.2462V33.3314C3.45431 33.7593 3.80119 34.1062 4.22909 34.1062H7.31181C7.73971 34.1062 8.0866 33.7593 8.0866 33.3314V30.2462ZM7.31181 37.7422C7.73971 37.7422 8.0866 38.0891 8.0866 38.517V41.6022C8.0866 42.0301 7.73971 42.377 7.31181 42.377H4.22909C3.80119 42.377 3.45431 42.0301 3.45431 41.6022V38.517C3.45431 38.0891 3.80119 37.7422 4.22909 37.7422H7.31181ZM8.0866 46.7879C8.0866 46.36 7.73971 46.0131 7.31181 46.0131H4.22909C3.80119 46.0131 3.45431 46.36 3.45431 46.7879V49.8731C3.45431 50.301 3.80119 50.6479 4.22909 50.6479H7.31181C7.73971 50.6479 8.0866 50.301 8.0866 49.8731V46.7879Z" fill="url(#paint0_linear_1_894)"/>
<g filter="url(#filter0_b_1_894)">
<path fill-rule="evenodd" clip-rule="evenodd" d="M55.9535 5.3425V50.5702C55.9535 53.1286 53.8794 55.2026 51.3209 55.2023L4.99728 55.1978L46.9699 2.2153C49.9334 -1.52566 55.9535 0.569921 55.9535 5.3425ZM48.2346 6.97536C48.2346 5.69623 49.2717 4.6593 50.5508 4.6593C51.8299 4.6593 52.8669 5.69624 52.8669 6.97536V8.5193C52.8669 8.9472 52.52 9.29409 52.0921 9.29409H49.0094C48.5815 9.29409 48.2346 8.9472 48.2346 8.5193V6.97536ZM48.2328 13.7045C48.2328 13.2766 48.5797 12.9297 49.0076 12.9297H52.0903C52.5182 12.9297 52.8651 13.2766 52.8651 13.7045V16.7897C52.8651 17.2176 52.5182 17.5645 52.0903 17.5645H49.0076C48.5797 17.5645 48.2328 17.2176 48.2328 16.7897V13.7045ZM49.0076 21.2011C48.5797 21.2011 48.2328 21.548 48.2328 21.9759V25.0611C48.2328 25.489 48.5797 25.8359 49.0076 25.8359H52.0903C52.5182 25.8359 52.8651 25.489 52.8651 25.0611V21.9759C52.8651 21.548 52.5182 21.2011 52.0903 21.2011H49.0076ZM48.2328 30.2462C48.2328 29.8183 48.5797 29.4714 49.0076 29.4714H52.0903C52.5182 29.4714 52.8651 29.8183 52.8651 30.2462V33.3314C52.8651 33.7593 52.5182 34.1062 52.0903 34.1062H49.0076C48.5797 34.1062 48.2328 33.7593 48.2328 33.3314V30.2462ZM49.0076 37.7418C48.5797 37.7418 48.2328 38.0887 48.2328 38.5166V41.6018C48.2328 42.0297 48.5797 42.3766 49.0076 42.3766H52.0903C52.5182 42.3766 52.8651 42.0297 52.8651 41.6018V38.5166C52.8651 38.0887 52.5182 37.7418 52.0903 37.7418H49.0076ZM48.2328 46.7875C48.2328 46.3596 48.5797 46.0127 49.0076 46.0127H52.0903C52.5182 46.0127 52.8651 46.3596 52.8651 46.7875V49.8727C52.8651 50.3006 52.5182 50.6475 52.0903 50.6475H49.0076C48.5797 50.6475 48.2328 50.3006 48.2328 49.8727V46.7875Z" fill="url(#paint1_linear_1_894)"/>
</g>
<defs>
<filter id="filter0_b_1_894" x="-13.5312" y="-18.232" width="88.0131" height="91.9628" filterUnits="userSpaceOnUse" color-interpolation-filters="sRGB">
<feFlood flood-opacity="0" result="BackgroundImageFix"/>
<feGaussianBlur in="BackgroundImageFix" stdDeviation="9.26424"/>
<feComposite in2="SourceAlpha" operator="in" result="effect1_backgroundBlur_1_894"/>
<feBlend mode="normal" in="SourceGraphic" in2="effect1_backgroundBlur_1_894" result="shape"/>
</filter>
<linearGradient id="paint0_linear_1_894" x1="88.1508" y1="117.671" x2="33.5764" y2="130.422" gradientUnits="userSpaceOnUse">
<stop stop-color="#A900E4"/>
<stop offset="0.614583" stop-color="#770000"/>
<stop offset="1" stop-color="#F93457"/>
</linearGradient>
<linearGradient id="paint1_linear_1_894" x1="53.6877" y1="2.58399" x2="3.32437" y2="54.0751" gradientUnits="userSpaceOnUse">
<stop/>
<stop offset="1" stop-opacity="0"/>
</linearGradient>
</defs>
</svg>
