<svg width="116" height="115" viewBox="0 0 116 115" fill="none" xmlns="http://www.w3.org/2000/svg">
<g filter="url(#filter0_d_1_892)">
<path fill-rule="evenodd" clip-rule="evenodd" d="M76.3474 74.9234C78.3588 77.4629 76.5501 81.2026 73.3106 81.2026H35.0021C32.4439 81.2026 30.37 79.1287 30.37 76.5705V31.3444C30.37 26.5716 36.3906 24.4761 39.3539 28.2175L76.3474 74.9234ZM38.0868 32.9758C38.0868 31.6967 37.0498 30.6598 35.7707 30.6598C34.4915 30.6598 33.4545 31.6967 33.4545 32.9758V34.5198C33.4545 34.9477 33.8014 35.2946 34.2293 35.2946H37.312C37.7399 35.2946 38.0868 34.9477 38.0868 34.5198V32.9758ZM38.0866 39.705C38.0866 39.2771 37.7397 38.9302 37.3118 38.9302H34.2291C33.8012 38.9302 33.4543 39.2771 33.4543 39.705V42.7902C33.4543 43.2181 33.8012 43.565 34.2291 43.565H37.3118C37.7397 43.565 38.0866 43.2181 38.0866 42.7902V39.705ZM37.3118 47.2009C37.7397 47.2009 38.0866 47.5477 38.0866 47.9757V51.0609C38.0866 51.4888 37.7397 51.8357 37.3118 51.8357H34.2291C33.8012 51.8357 33.4543 51.4888 33.4543 51.0609V47.9757C33.4543 47.5477 33.8012 47.2009 34.2291 47.2009H37.3118ZM38.0866 56.2462C38.0866 55.8183 37.7397 55.4714 37.3118 55.4714H34.2291C33.8012 55.4714 33.4543 55.8183 33.4543 56.2462V59.3314C33.4543 59.7593 33.8012 60.1062 34.2291 60.1062H37.3118C37.7397 60.1062 38.0866 59.7593 38.0866 59.3314V56.2462ZM37.3118 63.7422C37.7397 63.7422 38.0866 64.0891 38.0866 64.517V67.6022C38.0866 68.0301 37.7397 68.377 37.3118 68.377H34.2291C33.8012 68.377 33.4543 68.0301 33.4543 67.6022V64.517C33.4543 64.0891 33.8012 63.7422 34.2291 63.7422H37.3118ZM38.0866 72.7879C38.0866 72.36 37.7397 72.0131 37.3118 72.0131H34.2291C33.8012 72.0131 33.4543 72.36 33.4543 72.7879V75.8731C33.4543 76.301 33.8012 76.6479 34.2291 76.6479H37.3118C37.7397 76.6479 38.0866 76.301 38.0866 75.8731V72.7879Z" fill="url(#paint0_linear_1_892)"/>
<g filter="url(#filter1_b_1_892)">
<path fill-rule="evenodd" clip-rule="evenodd" d="M85.9535 31.3425V76.5702C85.9535 79.1286 83.8794 81.2026 81.3209 81.2023L34.9973 81.1978L76.9699 28.2153C79.9334 24.4743 85.9535 26.5699 85.9535 31.3425ZM78.2346 32.9754C78.2346 31.6962 79.2717 30.6593 80.5508 30.6593C81.8299 30.6593 82.8669 31.6962 82.8669 32.9754V34.5193C82.8669 34.9472 82.52 35.2941 82.0921 35.2941H79.0094C78.5815 35.2941 78.2346 34.9472 78.2346 34.5193V32.9754ZM78.2328 39.7045C78.2328 39.2766 78.5797 38.9297 79.0076 38.9297H82.0903C82.5182 38.9297 82.8651 39.2766 82.8651 39.7045V42.7897C82.8651 43.2176 82.5182 43.5645 82.0903 43.5645H79.0076C78.5797 43.5645 78.2328 43.2176 78.2328 42.7897V39.7045ZM79.0076 47.2011C78.5797 47.2011 78.2328 47.548 78.2328 47.9759V51.0611C78.2328 51.489 78.5797 51.8359 79.0076 51.8359H82.0903C82.5182 51.8359 82.8651 51.489 82.8651 51.0611V47.9759C82.8651 47.548 82.5182 47.2011 82.0903 47.2011H79.0076ZM78.2328 56.2462C78.2328 55.8183 78.5797 55.4714 79.0076 55.4714H82.0903C82.5182 55.4714 82.8651 55.8183 82.8651 56.2462V59.3314C82.8651 59.7593 82.5182 60.1062 82.0903 60.1062H79.0076C78.5797 60.1062 78.2328 59.7593 78.2328 59.3314V56.2462ZM79.0076 63.7418C78.5797 63.7418 78.2328 64.0887 78.2328 64.5166V67.6018C78.2328 68.0297 78.5797 68.3766 79.0076 68.3766H82.0903C82.5182 68.3766 82.8651 68.0297 82.8651 67.6018V64.5166C82.8651 64.0887 82.5182 63.7418 82.0903 63.7418H79.0076ZM78.2328 72.7875C78.2328 72.3596 78.5797 72.0127 79.0076 72.0127H82.0903C82.5182 72.0127 82.8651 72.3596 82.8651 72.7875V75.8727C82.8651 76.3006 82.5182 76.6475 82.0903 76.6475H79.0076C78.5797 76.6475 78.2328 76.3006 78.2328 75.8727V72.7875Z" fill="url(#paint1_linear_1_892)"/>
</g>
</g>
<defs>
<filter id="filter0_d_1_892" x="0.780954" y="0.652628" width="114.762" height="114.084" filterUnits="userSpaceOnUse" color-interpolation-filters="sRGB">
<feFlood flood-opacity="0" result="BackgroundImageFix"/>
<feColorMatrix in="SourceAlpha" type="matrix" values="0 0 0 0 0 0 0 0 0 0 0 0 0 0 0 0 0 0 127 0" result="hardAlpha"/>
<feOffset dy="3.94521"/>
<feGaussianBlur stdDeviation="14.7945"/>
<feColorMatrix type="matrix" values="0 0 0 0 0.976471 0 0 0 0 0.203922 0 0 0 0 0.945569 0 0 0 0.33 0"/>
<feBlend mode="normal" in2="BackgroundImageFix" result="effect1_dropShadow_1_892"/>
<feBlend mode="normal" in="SourceGraphic" in2="effect1_dropShadow_1_892" result="shape"/>
</filter>
<filter id="filter1_b_1_892" x="16.4688" y="7.76798" width="88.0131" height="91.9628" filterUnits="userSpaceOnUse" color-interpolation-filters="sRGB">
<feFlood flood-opacity="0" result="BackgroundImageFix"/>
<feGaussianBlur in="BackgroundImageFix" stdDeviation="9.26424"/>
<feComposite in2="SourceAlpha" operator="in" result="effect1_backgroundBlur_1_892"/>
<feBlend mode="normal" in="SourceGraphic" in2="effect1_backgroundBlur_1_892" result="shape"/>
</filter>
<linearGradient id="paint0_linear_1_892" x1="118.151" y1="143.671" x2="63.5764" y2="156.422" gradientUnits="userSpaceOnUse">
<stop stop-color="#A900E4"/>
<stop offset="0.614583" stop-color="#770000"/>
<stop offset="1" stop-color="#F93457"/>
</linearGradient>
<linearGradient id="paint1_linear_1_892" x1="83.6877" y1="28.584" x2="33.3244" y2="80.0751" gradientUnits="userSpaceOnUse">
<stop/>
<stop offset="1" stop-opacity="0"/>
</linearGradient>
</defs>
</svg>
