<svg width="52" height="46" viewBox="0 0 52 46" fill="none" xmlns="http://www.w3.org/2000/svg">
<path d="M51.7672 30.5715C51.7672 33.348 51.2541 35.7249 50.2277 37.7021C49.2013 39.6372 47.6413 41.2358 45.5475 42.4979C43.4537 43.7179 40.8262 44.6013 37.665 45.1482C34.5038 45.6951 30.7884 45.9685 26.5187 45.9685C22.167 45.9685 18.4105 45.674 15.2493 45.0851C12.0881 44.4961 9.4606 43.5706 7.36683 42.3086C5.27305 41.0465 3.69245 39.4269 2.62504 37.4497C1.55762 35.4724 0.941806 33.1166 0.777588 30.3822H15.9883C16.1525 31.3077 16.5015 32.0649 17.0352 32.6539C17.5689 33.2007 18.2873 33.6214 19.1905 33.9159C20.0937 34.2104 21.1611 34.3997 22.3928 34.4838C23.6244 34.568 24.9997 34.61 26.5187 34.61C29.9263 34.61 32.4511 34.4207 34.0933 34.0421C35.7355 33.6635 36.5566 32.8852 36.5566 31.7073C36.5566 30.908 36.0434 30.3401 35.017 30.0035C34.0317 29.6249 32.718 29.3725 31.0758 29.2463C29.4336 29.1201 27.5451 29.036 25.4103 28.9939C23.3165 28.9518 21.1611 28.8467 18.9442 28.6784C16.7683 28.468 14.6129 28.1315 12.4781 27.6687C10.3843 27.206 8.51637 26.5119 6.87419 25.5864C5.23201 24.6188 3.89772 23.3357 2.87136 21.7371C1.88605 20.1385 1.39341 18.0982 1.39341 15.6161C1.39341 12.7976 1.94764 10.4207 3.05611 8.48554C4.20563 6.55039 5.84781 4.99386 7.98265 3.81595C10.1175 2.59596 12.7039 1.73356 15.7419 1.22874C18.821 0.681846 22.2696 0.408401 26.0877 0.408401C29.9878 0.408401 33.4364 0.70288 36.4334 1.29184C39.4714 1.83873 42.0373 2.7432 44.1311 4.00525C46.2659 5.22524 47.9081 6.82384 49.0577 8.80105C50.2482 10.7362 50.9256 13.092 51.0899 15.8686H35.8792C35.5507 14.1017 34.5449 12.9869 32.8617 12.5241C31.2195 12.0193 28.9615 11.7669 26.0877 11.7669C24.6508 11.7669 23.337 11.8089 22.1464 11.8931C20.9969 11.9352 20.0116 12.0614 19.1905 12.2717C18.3694 12.44 17.7126 12.7134 17.2199 13.092C16.7683 13.4707 16.5425 13.9755 16.5425 14.6065C16.5425 15.4058 17.0352 15.9948 18.0205 16.3734C19.0468 16.7099 20.3811 16.9623 22.0233 17.1306C23.7065 17.2568 25.595 17.362 27.6888 17.4461C29.7826 17.4882 31.9379 17.6144 34.1549 17.8247C36.3718 18.0351 38.5272 18.3716 40.621 18.8344C42.7147 19.2551 44.5827 19.9492 46.2249 20.9168C47.9081 21.8423 49.2424 23.0833 50.2277 24.6398C51.2541 26.1964 51.7672 28.1736 51.7672 30.5715Z" fill="#080808"/>
</svg>
